<svg width="195" height="195" viewBox="0 0 195 195" fill="none" xmlns="http://www.w3.org/2000/svg">
<path fill-rule="evenodd" clip-rule="evenodd" d="M97.5 195C151.348 195 195 151.348 195 97.5C195 43.6522 151.348 0 97.5 0C43.6522 0 0 43.6522 0 97.5C0 151.348 43.6522 195 97.5 195ZM97.5 172.059C138.678 172.059 172.059 138.678 172.059 97.5C172.059 56.3223 138.678 22.9412 97.5 22.9412C56.3223 22.9412 22.9412 56.3223 22.9412 97.5C22.9412 138.678 56.3223 172.059 97.5 172.059Z" fill="#2E5E4E"/>
<path fill-rule="evenodd" clip-rule="evenodd" d="M129.408 141.076C129.408 141.076 112.128 123.764 101.878 113.492C104.78 110.579 107.685 107.669 110.592 104.762L138.014 132.237C151.758 154.862 129.408 141.076 129.408 141.076ZM99.4069 93.554C95.7388 97.2364 92.0664 100.915 88.3897 104.588C86.0121 104.467 83.3481 104.042 80.286 100.973C60.9668 81.6252 49.5687 52.1202 51.924 49.7728C53.1101 48.5813 69.6038 63.6944 69.6038 63.6944L99.4069 93.554ZM144.966 67.3106C147.293 65.5055 152.478 61.5693 151.758 62.9088C142.27 80.6243 129.071 93.7459 125.112 97.4731C124.358 98.1826 123.392 98.6112 122.358 98.6649C120.252 98.7743 116.669 98.7827 115.572 97.6882C115.465 97.5771 92.4322 120.774 79.7039 133.593C76.0268 137.296 73.2096 140.133 72.0537 141.292C51.9239 152.235 60.3547 134.744 62.8637 132.237C64.1312 130.966 67.4148 127.693 71.6444 123.477C84.6199 110.543 106.498 88.7349 106.382 88.6308C105.296 87.5334 105.315 83.9448 105.431 81.8356C105.487 80.801 105.919 79.8352 106.631 79.0824C110.377 75.1226 123.565 61.9104 141.249 52.4002C142.574 51.6841 138.672 56.8337 136.863 59.1702C136.287 59.9136 135.663 60.5971 134.987 61.2507C131.09 65.0198 117.293 78.575 118.696 80.2487C119.449 81.1402 123.675 77.0469 128.795 72.0879C134.878 66.1955 142.224 59.0809 146.504 57.6544C145.075 61.9416 137.951 69.274 132.063 75.3343C127.127 80.4152 123.059 84.6019 123.944 85.3508C125.614 86.7644 139.183 73.0043 142.924 69.1499C143.566 68.4882 144.238 67.8759 144.966 67.3106Z" fill="#2E5E4E"/>
</svg>
