<svg width="195" height="195" viewBox="0 0 195 195" fill="none" xmlns="http://www.w3.org/2000/svg">
<path d="M195 97.5C195 151.348 151.348 195 97.5 195C43.6522 195 0 151.348 0 97.5C0 43.6522 43.6522 0 97.5 0C151.348 0 195 43.6522 195 97.5Z" fill="#8B0000"/>
<circle cx="97.5" cy="97.5" r="74.5588" fill="#F5E1C0"/>
<path fill-rule="evenodd" clip-rule="evenodd" d="M129.408 141.076C129.408 141.076 112.128 123.764 101.878 113.492C104.78 110.579 107.685 107.669 110.592 104.762L138.014 132.237C151.758 154.861 129.408 141.076 129.408 141.076ZM99.4069 93.5539C95.7388 97.2363 92.0664 100.914 88.3897 104.588C86.012 104.467 83.348 104.042 80.286 100.973C60.9668 81.625 49.5686 52.1201 51.9239 49.7727C53.1101 48.5812 69.6037 63.6943 69.6037 63.6943L99.4069 93.5539ZM144.966 67.3105C147.293 65.5054 152.477 61.5692 151.758 62.9087C142.27 80.6242 129.071 93.7458 125.112 97.473C124.358 98.1825 123.392 98.6111 122.358 98.6648C120.252 98.7742 116.669 98.7826 115.572 97.6881C115.465 97.577 92.4322 120.774 79.7038 133.593C76.0267 137.296 73.2096 140.133 72.0537 141.292C51.9239 152.234 60.3547 134.744 62.8637 132.237C64.1312 130.966 67.4148 127.693 71.6444 123.477C84.6199 110.543 106.498 88.7348 106.382 88.6307C105.296 87.5333 105.315 83.9447 105.431 81.8355C105.487 80.8009 105.919 79.8351 106.631 79.0823C110.377 75.1225 123.565 61.9103 141.249 52.4001C142.574 51.684 138.672 56.8336 136.863 59.1701C136.287 59.9135 135.663 60.597 134.987 61.2506C131.09 65.0197 117.293 78.5749 118.696 80.2486C119.449 81.1401 123.675 77.0468 128.795 72.0878C134.878 66.1954 142.224 59.0808 146.504 57.6543C145.075 61.9415 137.951 69.2739 132.063 75.3342C127.127 80.4151 123.059 84.6018 123.944 85.3507C125.614 86.7643 139.183 73.0042 142.924 69.1498C143.566 68.4881 144.238 67.8758 144.966 67.3105Z" fill="#8B0000"/>
</svg>
